<svg xmlns="http://www.w3.org/2000/svg" width="330" height="410" viewBox="0 0 330 410" fill="none">
  <defs>
    <linearGradient id="box" x1="50" y1="150" x2="278" y2="321" gradientUnits="userSpaceOnUse">
      <stop stop-color="#ffbac7"/>
      <stop offset="1" stop-color="#ffafc1"/>
    </linearGradient>
    <linearGradient id="ribbon" x1="141" y1="100" x2="189" y2="321" gradientUnits="userSpaceOnUse">
      <stop stop-color="#ff83aa"/>
      <stop offset="1" stop-color="#f978a0"/>
    </linearGradient>
  </defs>

  <!-- The slightly uneven outlines give the box the hand-drawn look of the reference. -->
  <path d="M50 146 279 147 279 313q0 7-7 8l-219-1q-3 0-3-5Z" fill="url(#box)" stroke="#bc365d" stroke-width="2.2" stroke-linejoin="round"/>
  <path d="M53 153q-1 64 0 159m3 5 83 1m53 0 79-1m5-164-1 157" stroke="#ef819a" stroke-width="2" opacity=".75" stroke-linecap="round"/>
  <path d="M141 145h47v175h-47z" fill="url(#ribbon)" stroke="#bc365d" stroke-width="2"/>
  <path d="M144 153q-2 69 0 159m41-160v162" stroke="#ffb6c5" stroke-width="1.6" opacity=".55"/>

  <!-- Lid, with the ribbon wrapped over its front edge. -->
  <path d="m46 123 237-1 1 28-237 1z" fill="#ff9fb8" stroke="#b93058" stroke-width="2.2" stroke-linejoin="round"/>
  <path d="M48 126q116-2 234-1M49 149q116-2 232-1" stroke="#ffc4cf" stroke-width="1.5" opacity=".8"/>
  <path d="m141 122 47-1 1 29-47 1z" fill="#ff7fa5" stroke="#b93058" stroke-width="1.8"/>
  <path d="M145 124v24m40-24v24" stroke="#ffbdca" stroke-width="1.5" opacity=".75"/>

  <!-- Left bow loop. -->
  <path d="M164 115C145 100 121 63 103 56c-5-2-9 9-18 12-17 7-14 23-2 34 15 13 52 16 81 19Z" fill="#ff87aa" stroke="#b93058" stroke-width="2.2" stroke-linejoin="round"/>
  <path d="M157 113C134 91 113 69 96 72c-9 1-4 14 8 22 16 11 36 15 53 19Z" fill="#fff7f7" stroke="#b93058" stroke-width="1.7"/>
  <path d="M101 58c14 4 40 35 55 53M85 70c-12 10-6 22 4 28m1-29c-11 10-7 21 2 28m1-28c-8 10-4 20 4 27m9-28c20 14 34 27 45 39" stroke="#d95578" stroke-width="1.4" opacity=".9" stroke-linecap="round"/>

  <!-- Right bow loop. -->
  <path d="M183 111c18-12 20-49 28-57 9-12 17-14 29-7 7 4 17 1 21 10 6 13-8 33-27 48-15 12-34 14-50 15Z" fill="#ff83a8" stroke="#b93058" stroke-width="2.2" stroke-linejoin="round"/>
  <path d="M198 111c11-15 14-42 29-55 9-7 18-7 24-4 3 8-14 29-25 39-10 10-19 17-28 20Z" fill="#fff8f8" stroke="#b93058" stroke-width="1.7"/>
  <path d="M232 47c17 1 22 5 24 12 2 10-9 25-17 32m-1-39c10-2 17 2 19 9m-23-7c9-3 16-1 18 5m-41 6c-8 15-10 31-19 43" stroke="#d95578" stroke-width="1.4" stroke-linecap="round"/>

  <!-- Ribbon ends sweep across the lid. -->
  <path d="M171 113c-19-5-37-1-55 7-26 11-42 29-53 42l-5-11-3-8c22-24 53-38 82-38 18 0 28 4 34 8Z" fill="#ff8eaf" stroke="#b93058" stroke-width="2" stroke-linejoin="round"/>
  <path d="M60 150c22-23 54-39 87-41M69 157c13-15 31-28 51-35" stroke="#d95c7b" stroke-width="1.4" stroke-linecap="round"/>
  <path d="M181 111c21 11 42 11 65 7 22-4 46-10 62-4l9 8-14-3 5 12c-18-21-37-13-60-8-23 5-48 5-67-4Z" fill="#ff8aac" stroke="#b93058" stroke-width="2" stroke-linejoin="round"/>
  <path d="M197 117c23 8 47 2 71-2m21-1c8 0 17 3 22 7" stroke="#d95c7b" stroke-width="1.4" stroke-linecap="round"/>

  <!-- Knot and sketchy finishing lines. -->
  <path d="M158 106c5-7 13-7 19-5 7-5 15 3 13 12-1 5-6 10-12 10-7 2-17 0-22-5-3-4-2-9 2-12Z" fill="#ff8bab" stroke="#b93058" stroke-width="2"/>
  <path d="M175 102c5 4 6 11 2 17m6-16c7 6 7 12 1 17m-25-11c-2 5 0 9 5 11" stroke="#d45a7a" stroke-width="1.3" stroke-linecap="round"/>
  <path d="M52 307c-1 4 0 7 3 9m4-5-5 5m216-3 5 3m-8-1 5 3m-213-6 6 1" stroke="#de6381" stroke-width="1.2" opacity=".7" stroke-linecap="round"/>
</svg>
